<svg preserveAspectRatio="none" width="100%" height="100%" overflow="visible" style="display: block;" viewBox="0 0 20 20" fill="none" xmlns="http://www.w3.org/2000/svg">
<g id="Mask group">
<mask id="mask0_0_157" style="mask-type:alpha" maskUnits="userSpaceOnUse" x="0" y="0" width="20" height="20">
<rect id="Rectangle 29" width="20" height="20" fill="var(--fill-0, #D9D9D9)"/>
</mask>
<g mask="url(#mask0_0_157)">
<path id="Union" d="M13.0674 17C13.0674 18.6568 11.7242 19.9999 10.0674 20C8.41053 20 7.06738 18.6569 7.06738 17H2.2998C1.82501 17 1.51843 16.7205 1.38086 16.5576C1.23099 16.3801 1.13976 16.1822 1.08594 16.0166C1.0311 15.8478 0.993984 15.648 1.00098 15.4385C1.00709 15.2557 1.05304 14.9058 1.32715 14.6104C2.05792 13.8225 3.06738 11.8992 3.06738 8C3.06738 4.93447 4.17604 2.89307 5.67383 1.63477C7.13282 0.409217 8.87271 0 10.0674 0C11.262 4.10532e-05 13.0011 0.409294 14.46 1.63477C15.9579 2.89305 17.0674 4.93424 17.0674 8C17.0674 11.8995 18.0768 13.8226 18.8076 14.6104C19.0817 14.9058 19.1277 15.2557 19.1338 15.4385C19.1408 15.6479 19.1036 15.8478 19.0488 16.0166C18.995 16.1821 18.9037 16.3802 18.7539 16.5576C18.6164 16.7205 18.3096 16.9999 17.835 17H13.0674ZM10.0674 2C9.26205 2 8.00097 2.29156 6.95996 3.16602C5.95808 4.00779 5.06738 5.4661 5.06738 8C5.06738 11.3255 4.38808 13.5725 3.51855 15H16.6152C15.7457 13.5725 15.0674 11.3255 15.0674 8C15.0674 5.4658 14.1759 4.00774 13.1738 3.16602C12.1329 2.29163 10.8727 2.00004 10.0674 2Z" fill="var(--fill-0, #333333)"/>
</g>
</g>
</svg>
