<svg preserveAspectRatio="none" width="100%" height="100%" overflow="visible" style="display: block;" viewBox="0 0 24 24" fill="none" xmlns="http://www.w3.org/2000/svg">
<g id="icon_chevron_down_grey">
<mask id="mask0_0_80" style="mask-type:alpha" maskUnits="userSpaceOnUse" x="2" y="2" width="20" height="20">
<path id="&#236;&#130;&#172;&#234;&#176;&#129;&#237;&#152;&#149; 136" d="M2 2H22V22H2V2Z" fill="var(--fill-0, #D9D9D9)"/>
</mask>
<g mask="url(#mask0_0_80)">
<path id="Vector" d="M21.6725 7.21434C21.4884 7.03064 21.2457 6.91735 20.9866 6.8942C20.7276 6.87106 20.4686 6.93953 20.2549 7.08769L20.0993 7.21434L11.9991 15.3179L3.89771 7.21434C3.71361 7.03064 3.47089 6.91735 3.21185 6.8942C2.9528 6.87106 2.69384 6.93953 2.48009 7.08769L2.32455 7.21434C2.14084 7.39844 2.02755 7.64116 2.00441 7.90021C1.98127 8.15926 2.04974 8.41821 2.19789 8.63197L2.32455 8.78751L11.2125 17.6755C11.3966 17.8592 11.6393 17.9724 11.8984 17.9956C12.1574 18.0187 12.4164 17.9503 12.6301 17.8021L12.7857 17.6755L21.6736 8.78751C21.7771 8.68431 21.8592 8.56171 21.9152 8.42673C21.9712 8.29176 22 8.14706 22 8.00092C22 7.85479 21.9712 7.71009 21.9152 7.57512C21.8592 7.44014 21.776 7.31754 21.6725 7.21434Z" fill="var(--fill-0, #CCCCCC)"/>
</g>
</g>
</svg>
