<svg preserveAspectRatio="none" width="100%" height="100%" overflow="visible" style="display: block;" viewBox="0 0 16.6667 16.6667" fill="none" xmlns="http://www.w3.org/2000/svg">
<g id="Mask group">
<mask id="mask0_0_324" style="mask-type:alpha" maskUnits="userSpaceOnUse" x="0" y="0" width="17" height="17">
<rect id="Rectangle 1431" width="16.6667" height="16.6667" fill="var(--fill-0, #D9D9D9)"/>
</mask>
<g mask="url(#mask0_0_324)">
<path id="Union" d="M10.0003 1.66634H3.33333C2.41286 1.66634 1.66634 2.41286 1.66634 3.33333V13.3333C1.66634 14.2538 2.41286 15.0003 3.33333 15.0003H13.3333C14.2538 15.0003 15.0003 14.2538 15.0003 13.3333V6.66634H16.6663V13.3333C16.6663 15.1166 15.2663 16.573 13.5052 16.6624L13.3333 16.6663H3.33333L3.16146 16.6624C1.45731 16.5759 0.090786 15.2094 0.00423178 13.5052L0.000325531 13.3333V3.33333C0.000325531 1.49238 1.49238 0.000325558 3.33333 0.000325531H10.0003V1.66634ZM11.4759 7.07064L11.1224 7.42415C10.9695 7.577 10.7709 7.67668 10.557 7.70736L9.4847 7.86068C9.15489 7.90769 8.87138 7.62504 8.91829 7.29525L9.07161 6.22201C9.10229 6.00802 9.20197 5.80945 9.35482 5.65658L9.70833 5.30306L11.4759 7.07064ZM14.304 0.707357C14.6945 0.316918 15.3276 0.317088 15.7181 0.707357L16.0716 1.06087C16.4621 1.4514 16.4621 2.08442 16.0716 2.47493L12.0648 6.48177L10.2972 4.71419L14.304 0.707357Z" fill="var(--fill-0, #CCCCCC)"/>
</g>
</g>
</svg>
