<svg preserveAspectRatio="none" width="100%" height="100%" overflow="visible" style="display: block;" viewBox="0 0 13.3333 13.3333" fill="none" xmlns="http://www.w3.org/2000/svg">
<g id="error">
<rect width="13.3333" height="13.3333" rx="6.66667" fill="var(--fill-0, #333333)"/>
<path id="Union" d="M6.66699 4.90234C6.23383 4.90234 5.88281 4.55035 5.88281 4.11719C5.88306 3.68423 6.23398 3.33301 6.66699 3.33301C7.09985 3.33318 7.45092 3.68434 7.45117 4.11719C7.45117 4.55024 7.10001 4.90217 6.66699 4.90234ZM6.66699 10C6.23387 10 5.88289 9.64892 5.88281 9.21582L5.88281 6.4707C5.88281 6.03754 6.23383 5.68652 6.66699 5.68652C7.10001 5.6867 7.45117 6.03765 7.45117 6.4707L7.45117 9.21582C7.4511 9.64881 7.09996 9.99982 6.66699 10Z" fill="var(--fill-0, white)"/>
</g>
</svg>
