<svg preserveAspectRatio="none" width="100%" height="100%" overflow="visible" style="display: block;" viewBox="0 0 20 20" fill="none" xmlns="http://www.w3.org/2000/svg">
<g id="Mask group">
<mask id="mask0_0_146" style="mask-type:alpha" maskUnits="userSpaceOnUse" x="0" y="0" width="20" height="20">
<rect id="Rectangle 1499" width="20" height="20" fill="var(--fill-0, #D9D9D9)"/>
</mask>
<g mask="url(#mask0_0_146)">
<path id="Union" d="M18.2607 2C19.2211 2.00018 20 2.77888 20 3.73926V5.47852C20 5.79527 19.9127 6.09097 19.7646 6.34668C19.9133 6.60289 20 6.90025 20 7.21777V8.95605C20 9.27298 19.9128 9.56937 19.7646 9.8252C19.9132 10.0813 19.9999 10.378 20 10.6953V12.4346C20 12.7516 19.9128 13.0478 19.7646 13.3037C19.9131 13.5598 20 13.8565 20 14.1738V15.9131C20 16.8136 19.3146 17.5537 18.4375 17.6426L18.2607 17.6523H8.69531L8.51758 17.6426C8.25829 17.6162 8.01552 17.5328 7.80273 17.4053C7.25841 17.5649 6.68289 17.6523 6.08691 17.6523C2.72529 17.6523 0.00013774 14.927 0 11.5654C2.28386e-05 8.20373 2.72521 5.47854 6.08691 5.47852C6.3905 5.47852 6.68881 5.50103 6.98047 5.54395C6.97347 5.54292 6.96599 5.54202 6.95898 5.54102L6.95605 5.47852V3.73926C6.95605 2.77892 7.73503 2.00025 8.69531 2H18.2607ZM11.5869 14.1738C11.2771 14.826 10.8546 15.4137 10.3447 15.9131H18.2607V14.1738H11.5869ZM6.08691 7.21777C3.68571 7.2178 1.73928 9.16423 1.73926 11.5654C1.7394 13.9665 3.68578 15.9131 6.08691 15.9131C8.48807 15.9131 10.4344 13.9666 10.4346 11.5654C10.4345 9.16421 8.48814 7.21777 6.08691 7.21777ZM7.17383 8.73926C7.65408 8.73926 8.04395 9.12913 8.04395 9.60938C8.04357 10.0893 7.65385 10.4785 7.17383 10.4785H6.73926C6.01889 10.4785 5.43457 11.0628 5.43457 11.7832C5.4349 12.5033 6.01909 13.0869 6.73926 13.0869H7.17383C7.65408 13.0869 8.04395 13.4768 8.04395 13.957C8.04366 14.437 7.6539 14.8262 7.17383 14.8262H6.73926C5.05859 14.8262 3.69564 13.4638 3.69531 11.7832C3.69531 10.1023 5.05839 8.73926 6.73926 8.73926H7.17383ZM12.1104 10.6953C12.151 10.9795 12.1738 11.27 12.1738 11.5654C12.1738 11.8606 12.1519 12.1507 12.1113 12.4346H18.2607V10.6953H12.1104ZM10.3457 7.21777C10.8939 7.75485 11.3396 8.39491 11.6543 9.10645C11.6321 9.0562 11.6104 9.00557 11.5869 8.95605H18.2607V7.21777H10.3457ZM8.69531 5.47852H18.2607V3.73926H8.69531V5.47852Z" fill="var(--fill-0, #6267E9)"/>
</g>
</g>
</svg>
