<svg preserveAspectRatio="none" width="100%" height="100%" overflow="visible" style="display: block;" viewBox="0 0 20 20" fill="none" xmlns="http://www.w3.org/2000/svg">
<g id="Mask group">
<mask id="mask0_0_134" style="mask-type:alpha" maskUnits="userSpaceOnUse" x="0" y="0" width="20" height="20">
<rect id="Rectangle 1501" width="20" height="20" fill="var(--fill-0, #D9D9D9)"/>
</mask>
<g mask="url(#mask0_0_134)">
<path id="Union" d="M12.1133 0.00195312C12.1277 0.00237922 12.1329 0.00271699 12.1406 0.00292969C12.1452 0.00304613 12.1475 0.00292934 12.1475 0.00292969C13.0027 0.0154987 13.7339 0.62254 13.9033 1.46094C14.0725 2.29959 13.6333 3.14314 12.8496 3.48633C10.8228 4.37405 9.41314 6.39483 9.41309 8.74121C9.41313 11.9081 11.9805 14.4756 15.1475 14.4756L15.4043 14.4697C16.0012 14.4434 16.5723 14.3256 17.1055 14.1318C17.9096 13.8395 18.8095 14.1473 19.2656 14.8711C19.7217 15.5951 19.6109 16.5395 19 17.1387C17.1987 18.9051 14.7264 20 12 20C6.47715 20 2 15.5228 2 10C2 4.47715 6.47715 1.61069e-07 12 0C12.0484 0 12.0911 0.00130005 12.1133 0.00195312ZM12 1.81836C7.48131 1.81836 3.81836 5.48131 3.81836 10C3.81836 14.5187 7.48131 18.1816 12 18.1816C14.2304 18.1816 16.2517 17.2882 17.7275 15.8408C16.9226 16.1334 16.0535 16.2939 15.1475 16.2939C10.9764 16.2939 7.59477 12.9123 7.59473 8.74121C7.59478 5.64647 9.45676 2.98798 12.1211 1.82129C12.0809 1.82071 12.0403 1.81836 12 1.81836ZM16.9092 6.72754C17.4614 6.72759 17.9092 7.17528 17.9092 7.72754C17.909 8.27967 17.4613 8.72749 16.9092 8.72754C16.357 8.72754 15.9093 8.2797 15.9092 7.72754C15.9092 7.17525 16.3569 6.72754 16.9092 6.72754ZM13.9092 4.72754C14.4614 4.72759 14.9092 5.17528 14.9092 5.72754C14.909 6.27967 14.4613 6.72749 13.9092 6.72754C13.357 6.72754 12.9093 6.2797 12.9092 5.72754C12.9092 5.17525 13.3569 4.72754 13.9092 4.72754ZM16.4092 2.72754C16.6853 2.72759 16.9092 2.95143 16.9092 3.22754C16.909 3.50352 16.6852 3.72749 16.4092 3.72754C16.1331 3.72754 15.9093 3.50356 15.9092 3.22754C15.9092 2.9514 16.133 2.72754 16.4092 2.72754Z" fill="var(--fill-0, #6267E9)"/>
</g>
</g>
</svg>
