<svg preserveAspectRatio="none" width="100%" height="100%" overflow="visible" style="display: block;" viewBox="0 0 16.6667 16.6667" fill="none" xmlns="http://www.w3.org/2000/svg">
<g id="Mask group">
<mask id="mask0_0_727" style="mask-type:alpha" maskUnits="userSpaceOnUse" x="0" y="0" width="17" height="17">
<rect id="Rectangle 1330" width="16.6667" height="16.6667" fill="var(--fill-0, #D9D9D9)"/>
</mask>
<g mask="url(#mask0_0_727)">
<path id="Union" d="M8.12533 0.000325531C8.47035 0.000489632 8.75032 0.260392 8.75033 0.58138V7.50033H16.0853C16.4064 7.50033 16.6663 7.78015 16.6663 8.12533C16.6662 8.47035 16.4063 8.75032 16.0853 8.75033H8.75033V16.0853C8.75032 16.4063 8.47035 16.6662 8.12533 16.6663C7.78015 16.6663 7.50033 16.4064 7.50033 16.0853V8.75033H0.58138C0.260392 8.75032 0.000489282 8.47035 0.000325531 8.12533C0.000325531 7.78015 0.260291 7.50033 0.58138 7.50033H7.50033V0.58138C7.50034 0.260291 7.78015 0.000325546 8.12533 0.000325531Z" fill="var(--fill-0, #6267E9)"/>
</g>
</g>
</svg>
