<svg preserveAspectRatio="none" width="100%" height="100%" overflow="visible" style="display: block;" viewBox="0 0 16.6667 16.6667" fill="none" xmlns="http://www.w3.org/2000/svg">
<g id="Mask group">
<mask id="mask0_0_722" style="mask-type:alpha" maskUnits="userSpaceOnUse" x="0" y="0" width="17" height="17">
<rect id="Rectangle 1502" width="16.6667" height="16.6667" fill="var(--fill-0, #D9D9D9)"/>
</mask>
<g mask="url(#mask0_0_722)">
<path id="Union" d="M14.9145 0.000497253C15.357 0.012962 15.7062 0.382212 15.6938 0.824716L15.6059 3.93507C15.5798 4.86347 14.7724 5.57564 13.8481 5.48585L10.7504 5.18507C10.3099 5.14215 9.98697 4.74957 10.0297 4.30909C10.0726 3.86849 10.4651 3.54548 10.9057 3.58839L13.0356 3.7964C11.9115 2.82606 10.4503 2.23878 8.84903 2.23878C5.30747 2.2388 2.43692 5.10933 2.43692 8.65089C2.43692 12.1924 5.30747 15.063 8.84903 15.063C10.3767 15.063 11.7778 14.5303 12.8793 13.6392C13.2234 13.3607 13.7287 13.4133 14.0072 13.7573C14.2857 14.1015 14.2322 14.6068 13.8881 14.8853C12.5116 15.9991 10.7571 16.6665 8.84903 16.6665C4.42208 16.6665 0.833405 13.0778 0.833405 8.65089C0.833405 4.22393 4.42208 0.635287 8.84903 0.635263C10.8291 0.635263 12.6421 1.35549 14.0404 2.54542L14.0902 0.778818C14.1029 0.336566 14.4722 -0.0118269 14.9145 0.000497253Z" fill="var(--fill-0, #999999)"/>
</g>
</g>
</svg>
