<svg preserveAspectRatio="none" width="100%" height="100%" overflow="visible" style="display: block;" viewBox="0 0 13.3333 13.3333" fill="none" xmlns="http://www.w3.org/2000/svg">
<g id="Mask group">
<mask id="mask0_0_712" style="mask-type:alpha" maskUnits="userSpaceOnUse" x="0" y="0" width="14" height="14">
<rect id="Rectangle 1502" width="13.3333" height="13.3333" fill="var(--fill-0, #D9D9D9)"/>
</mask>
<g mask="url(#mask0_0_712)">
<path id="Union" d="M11.9314 -0.00022794C12.2854 0.00974386 12.5654 0.305925 12.5554 0.659928L12.4851 3.14821C12.4642 3.89099 11.8175 4.46049 11.0779 4.38844L8.60033 4.14821C8.24784 4.11387 7.98982 3.79953 8.02416 3.44704C8.0585 3.09462 8.37195 2.83663 8.72436 2.87087L10.4285 3.0359C9.52932 2.25994 8.3596 1.79079 7.07885 1.79079C4.24579 1.79101 1.94899 4.08756 1.94897 6.92067C1.94897 9.75379 4.24578 12.0503 7.07885 12.0506C8.30111 12.0506 9.42225 11.6239 10.3035 10.9109C10.5788 10.6881 10.983 10.7313 11.2058 11.0066C11.4282 11.2819 11.3853 11.6853 11.1101 11.908C10.0089 12.799 8.60527 13.3338 7.07885 13.3338C3.53746 13.3335 0.666738 10.4621 0.666738 6.92067C0.66676 3.37925 3.53747 0.508784 7.07885 0.508561C8.66297 0.508561 10.1135 1.08485 11.2322 2.03688L11.2722 0.623795C11.2822 0.269895 11.5775 -0.00998085 11.9314 -0.00022794Z" fill="var(--fill-0, #333333)"/>
</g>
</g>
</svg>
