<svg preserveAspectRatio="none" width="100%" height="100%" overflow="visible" style="display: block;" viewBox="0 0 17.1426 19.9998" fill="none" xmlns="http://www.w3.org/2000/svg">
<path id="Union" d="M13.8096 10.4763C15.6504 10.4765 17.1426 11.9685 17.1426 13.8094C17.1425 15.6502 15.6504 17.1422 13.8096 17.1424H12.3809C12.303 17.1424 12.2277 17.1317 12.1553 17.114C10.9528 18.8564 8.94415 19.9996 6.66699 19.9998C2.98515 19.9998 0 17.0146 0 13.3328V11.0711C9.03425e-05 10.7424 0.267023 10.4763 0.595703 10.4763H13.8096ZM1.9043 13.3328C1.9043 15.9627 4.0371 18.0945 6.66699 18.0945C9.29669 18.0943 11.4287 15.9625 11.4287 13.3328V12.3806H1.9043V13.3328ZM13.333 13.3328C13.333 13.995 13.2345 14.6343 13.0547 15.2381H13.8096C14.5984 15.2379 15.2382 14.5982 15.2383 13.8094C15.2383 13.0205 14.5984 12.3808 13.8096 12.3806H13.333V13.3328ZM4.73633 2.49979C5.05563 2.08213 5.65344 2.00207 6.07129 2.32107C6.48912 2.64046 6.56933 3.23912 6.25 3.65701L5.37695 4.79861C5.18025 5.05637 5.2315 5.42539 5.49023 5.62088L5.54492 5.66189C6.83558 6.63728 6.8356 8.57715 5.54492 9.55252C5.12526 9.86952 4.52701 9.78563 4.20996 9.366C3.89333 8.94637 3.97702 8.34897 4.39648 8.03201C4.67828 7.81868 4.67842 7.39465 4.39648 7.18143L4.34082 7.14041C3.2397 6.30818 3.02618 4.73812 3.86426 3.64139L4.73633 2.49979ZM8.44434 0.476348C8.70735 0.0209189 9.28964 -0.135254 9.74512 0.127715C10.2003 0.390813 10.3557 0.973117 10.0928 1.4285L9.24316 2.90213C8.98764 3.34488 9.06043 3.90489 9.42188 4.26639L9.46582 4.30936C10.6264 5.47027 10.6266 7.35268 9.46582 8.51346C9.09401 8.88523 8.49108 8.88502 8.11914 8.51346C7.74739 8.14153 7.7473 7.53865 8.11914 7.16678C8.53607 6.74985 8.53584 6.07311 8.11914 5.65604L8.0752 5.61307C7.10411 4.64193 6.90609 3.13837 7.59277 1.949L8.44434 0.476348Z" fill="var(--fill-0, #6267E9)"/>
</svg>
