<svg preserveAspectRatio="none" width="100%" height="100%" overflow="visible" style="display: block;" viewBox="0 0 24 24" fill="none" xmlns="http://www.w3.org/2000/svg">
<g id="ic / right">
<mask id="mask0_0_238" style="mask-type:alpha" maskUnits="userSpaceOnUse" x="2" y="2" width="20" height="20">
<path id="&#236;&#130;&#172;&#234;&#176;&#129;&#237;&#152;&#149; 136" d="M2 2H22V22H2V2Z" fill="var(--fill-0, #D9D9D9)"/>
</mask>
<g mask="url(#mask0_0_238)">
<path id="Vector" d="M7.21434 2.32751C7.03064 2.51161 6.91735 2.75433 6.8942 3.01338C6.87106 3.27242 6.93953 3.53138 7.08769 3.74513L7.21434 3.90067L15.3179 12.0009L7.21434 20.1023C7.03064 20.2864 6.91735 20.5291 6.8942 20.7882C6.87106 21.0472 6.93953 21.3062 7.08769 21.5199L7.21434 21.6755C7.39844 21.8592 7.64116 21.9724 7.90021 21.9956C8.15926 22.0187 8.41821 21.9503 8.63197 21.8021L8.78751 21.6755L17.6755 12.7875C17.8592 12.6034 17.9724 12.3607 17.9956 12.1016C18.0187 11.8426 17.9503 11.5836 17.8021 11.3699L17.6755 11.2143L8.78751 2.3264C8.68431 2.22293 8.56171 2.14085 8.42673 2.08484C8.29176 2.02883 8.14706 2 8.00092 2C7.85479 2 7.71009 2.02883 7.57512 2.08484C7.44014 2.14085 7.31754 2.22404 7.21434 2.32751Z" fill="var(--fill-0, #333333)"/>
</g>
</g>
</svg>
