<svg preserveAspectRatio="none" width="100%" height="100%" overflow="visible" style="display: block;" viewBox="0 0 20 20" fill="none" xmlns="http://www.w3.org/2000/svg">
<g id="Mask group">
<mask id="mask0_0_141" style="mask-type:alpha" maskUnits="userSpaceOnUse" x="0" y="0" width="20" height="20">
<rect id="Rectangle 1500" width="20" height="20" fill="var(--fill-0, #D9D9D9)"/>
</mask>
<g mask="url(#mask0_0_141)">
<path id="Union" d="M10 0C15.5228 0 20 4.47715 20 10C20 15.5228 15.5228 20 10 20C4.47715 20 0 15.5228 0 10C0 4.47715 4.47715 0 10 0ZM10 2C5.58172 2 2 5.58172 2 10C2 14.4183 5.58172 18 10 18C14.4183 18 18 14.4183 18 10C18 5.58172 14.4183 2 10 2ZM10 3.5C10.5523 3.5 11 3.94772 11 4.5V9C11 9.55228 11.4477 10 12 10H13.5C14.0523 10 14.5 10.4477 14.5 11C14.5 11.5523 14.0523 12 13.5 12H12C10.3431 12 9 10.6569 9 9V4.5C9 3.94772 9.44772 3.5 10 3.5Z" fill="var(--fill-0, #6267E9)"/>
</g>
</g>
</svg>
