<svg preserveAspectRatio="none" width="100%" height="100%" overflow="visible" style="display: block;" viewBox="0 0 24 24" fill="none" xmlns="http://www.w3.org/2000/svg">
<g id="ic / up_gray">
<mask id="mask0_0_193" style="mask-type:alpha" maskUnits="userSpaceOnUse" x="2" y="2" width="20" height="20">
<path id="&#236;&#130;&#172;&#234;&#176;&#129;&#237;&#152;&#149; 136" d="M2 2H22V22H2V2Z" fill="var(--fill-0, #D9D9D9)"/>
</mask>
<g mask="url(#mask0_0_193)">
<path id="Vector" d="M21.6725 16.6754C21.4884 16.8591 21.2457 16.9724 20.9866 16.9956C20.7276 17.0187 20.4686 16.9502 20.2549 16.8021L20.0993 16.6754L11.9991 8.57185L3.89771 16.6754C3.71361 16.8591 3.47089 16.9724 3.21185 16.9956C2.9528 17.0187 2.69384 16.9502 2.48009 16.8021L2.32455 16.6754C2.14084 16.4913 2.02755 16.2486 2.00441 15.9896C1.98127 15.7305 2.04974 15.4716 2.19789 15.2578L2.32455 15.1023L11.2125 6.21432C11.3966 6.03062 11.6393 5.91732 11.8984 5.89418C12.1574 5.87104 12.4164 5.93951 12.6301 6.08767L12.7857 6.21432L21.6736 15.1023C21.7771 15.2055 21.8592 15.3281 21.9152 15.463C21.9712 15.598 22 15.7427 22 15.8888C22 16.035 21.9712 16.1797 21.9152 16.3147C21.8592 16.4496 21.776 16.5722 21.6725 16.6754Z" fill="var(--fill-0, #CCCCCC)"/>
</g>
</g>
</svg>
