<svg preserveAspectRatio="none" width="100%" height="100%" overflow="visible" style="display: block;" viewBox="0 0 46.4442 16" fill="none" xmlns="http://www.w3.org/2000/svg">
<g id="&#234;&#180;&#128;&#235;&#166;&#172;&#236;&#158;&#144;">
<path id="Vector" d="M37.1978 4.54365C37.1978 7.01878 38.6652 9.82983 41.1934 10.9967L40.0972 12.5525C38.2939 11.7039 36.9591 9.98895 36.2431 7.99116C35.5182 10.1834 34.1215 12.0575 32.2829 12.9414L31.1337 11.4033C33.6796 10.2011 35.2177 7.19558 35.2354 4.54365V3.2H31.7525V1.57348H40.5392V3.2H37.1978V4.54365ZM43.9867 0V6.2232H46.4442V7.8674H43.9867V15.9823H42.0243V0H43.9867Z" fill="var(--fill-0, white)"/>
<path id="Vector_2" d="M29.1359 0V16H27.1912V0H29.1359ZM24.221 1.39669V7.39006H18.7227V10.6077C21.242 10.5901 23.4166 10.4663 25.9006 10.042L26.0773 11.6508C23.3547 12.1282 20.968 12.2166 18.1039 12.2166H16.7072V5.83425H22.2232V2.98785H16.6895V1.39669H24.221Z" fill="var(--fill-0, white)"/>
<path id="Vector_3" d="M9.10497 1.18453V2.13923C9.08729 3.23536 9.08729 4.80884 8.71602 6.84199L6.77127 6.66519C7.08066 5.01215 7.14254 3.79227 7.1779 2.81105H0.954696V1.18453H9.10497ZM5.07403 4.82652V8.00884C6.72707 7.94696 8.42431 7.8232 9.97127 7.60221L10.0773 9.01657C6.75359 9.61768 2.98785 9.67072 0.176796 9.6884L0 8.11492C0.945856 8.10608 2.00663 8.09724 3.12928 8.07956V4.82652H5.07403ZM12.9238 0V4.98564H14.9923V6.62983H12.9238V11.9691H10.9083V0H12.9238ZM13.4365 14.0729V15.6641H2.38674V10.9083H4.36685V14.0729H13.4365Z" fill="var(--fill-0, white)"/>
</g>
</svg>
