<svg preserveAspectRatio="none" width="100%" height="100%" overflow="visible" style="display: block;" viewBox="0 0 77.4193 20.0024" fill="none" xmlns="http://www.w3.org/2000/svg">
<g id="img / logo_white">
<g id="Icon">
<path d="M16.7429 0.00235625H13.5539V18.3569H16.7438V8.81145H19.9336V5.8769H16.7429V0.00235625Z" fill="white"/>
<path d="M36.682 0.00235625H39.8719V18.3569H36.682V0.00235625Z" fill="white"/>
<path d="M7.17788 0.00235627H0V2.93872H7.17788C7.3804 2.93204 7.58226 2.96481 7.77193 3.03513C7.96161 3.10546 8.13536 3.21197 8.28328 3.34858C8.43119 3.48519 8.55035 3.64921 8.63395 3.83127C8.71756 4.01334 8.76396 4.20987 8.77051 4.40963V14.6878H11.9604V4.40599C11.9154 3.19743 11.387 2.05562 10.4908 1.23036C9.5945 0.405095 8.40334 -0.0364372 7.17788 0.00235627Z" fill="white"/>
<path d="M33.4894 2.93963H29.9207V0.00235625H26.7281V2.93963H21.529V4.40963C21.543 4.81275 21.7185 5.19394 22.0171 5.46954C22.3157 5.74514 22.7129 5.89263 23.1217 5.87963H25.7336L21.529 13.3342L22.9447 14.0105C23.3169 14.193 23.7452 14.2299 24.1438 14.1139C24.5424 13.9979 24.8819 13.7376 25.094 13.3851L28.3051 7.68963L32.2581 14.6878L33.6737 14.0114C33.8515 13.9333 34.0114 13.8205 34.1438 13.6798C34.2762 13.5392 34.3784 13.3735 34.4441 13.1928C34.5099 13.0122 34.538 12.8203 34.5266 12.6286C34.5152 12.437 34.4646 12.2496 34.3779 12.0778C34.3705 12.0605 34.3594 12.0469 34.3521 12.0296L30.882 5.87327H35.0866V4.40599C35.0724 4.00279 34.8967 3.6216 34.598 3.34602C34.2992 3.07045 33.9019 2.92299 33.4931 2.93599" fill="white"/>
<path d="M57.6488 2.89145L54.1742 6.19236V0.00235625H57.6488V2.89145Z" fill="var(--fill-0, white)"/>
<path d="M66.1594 20.0024H62.6848V8.11326C60.5244 9.98236 58.2304 11.9433 56.9631 12.9669C53.9465 15.3987 51.7935 15.5814 51.2553 15.5842C50.2896 15.6456 49.3211 15.5182 48.4055 15.2093C47.4898 14.9004 46.6451 14.4161 45.9198 13.7842C45.2132 13.0967 44.6582 12.2725 44.2898 11.3634C43.9214 10.4544 43.7474 9.47998 43.7788 8.50145V0.205084H47.2535V8.50145C47.2239 9.03467 47.3048 9.56825 47.4911 10.0696C47.6775 10.571 47.9654 11.0298 48.3373 11.4178C48.7294 11.7408 49.1827 11.9836 49.6709 12.1322C50.159 12.2807 50.6722 12.3321 51.1806 12.2833H51.2092C52.5254 12.0009 53.7372 11.3661 54.7115 10.4487C57.4608 8.22963 65.4553 1.22145 65.5346 1.15327L65.7364 0.971447L65.9862 0.861447C67.0434 0.402151 68.1867 0.166777 69.3419 0.170538C71.4419 0.135964 73.4702 0.923962 74.9822 2.36184C76.4942 3.79972 77.3666 5.7702 77.4083 7.84145C77.3666 9.91269 76.4942 11.8832 74.9822 13.321C73.4702 14.7589 71.4419 15.5469 69.3419 15.5124C68.2476 15.5137 67.1636 15.3024 66.1521 14.8905V20.0024H66.1594ZM63.2553 7.62145L65.7733 10.586C66.2122 11.0987 66.7601 11.51 67.378 11.7907C67.996 12.0714 68.669 12.2148 69.3493 12.2105C70.5459 12.2312 71.7018 11.7826 72.5633 10.9632C73.4247 10.1439 73.9212 9.02074 73.9438 7.84054C73.9196 6.66145 73.4223 5.53994 72.561 4.72194C71.6997 3.90394 70.5448 3.4562 69.3493 3.4769C68.7767 3.47487 68.2085 3.57624 67.6728 3.77599C67.0516 4.3169 65.2535 5.8869 63.2553 7.62145Z" fill="var(--fill-0, white)"/>
</g>
</g>
</svg>
